<svg width="100" height="100" viewBox="0 0 100 100" fill="none" xmlns="http://www.w3.org/2000/svg">
<path fill-rule="evenodd" clip-rule="evenodd" d="M100 50C100 77.6142 77.6142 100 50 100C22.3858 100 0 77.6142 0 50C0 22.3858 22.3858 0 50 0C77.6142 0 100 22.3858 100 50ZM68.4893 33.1496C69.5855 31.9624 71.3629 31.9624 72.4592 33.1496C73.5555 34.3369 73.5555 36.2617 72.4592 37.4489L45.2156 66.9526C45.1049 67.1443 44.9726 67.3255 44.8187 67.4922C43.7969 68.5988 42.1833 68.674 41.0811 67.7177C40.9804 67.6348 40.8837 67.5436 40.7918 67.4441C40.7384 67.3863 40.6875 67.3266 40.6393 67.2654L28.985 54.6443C27.8887 53.4571 27.8887 51.5322 28.985 50.345C30.0812 49.1578 31.8586 49.1578 32.9549 50.345L42.783 60.9884L68.4893 33.1496Z" fill="black"/>
</svg>
