<svg width="100" height="100" viewBox="0 0 100 100" fill="none" xmlns="http://www.w3.org/2000/svg">
<path fill-rule="evenodd" clip-rule="evenodd" d="M100 50C100 77.6142 77.6142 100 50 100C22.3858 100 0 77.6142 0 50C0 22.3858 22.3858 0 50 0C77.6142 0 100 22.3858 100 50ZM68.125 28.9167C69.2065 27.8581 70.9601 27.8581 72.0416 28.9167C73.1232 29.9752 73.1232 31.6915 72.0416 32.75L54.4166 50L72.0417 67.25C73.1232 68.3086 73.1232 70.0248 72.0417 71.0834C70.9601 72.1419 69.2066 72.1419 68.125 71.0834L50.5 53.8333L32.875 71.0833C31.7934 72.1419 30.0399 72.1419 28.9583 71.0833C27.8768 70.0248 27.8768 68.3085 28.9583 67.25L46.5833 50L28.9583 32.75C27.8768 31.6915 27.8768 29.9753 28.9583 28.9167C30.0399 27.8582 31.7934 27.8582 32.875 28.9167L50.5 46.1667L68.125 28.9167Z" fill="black"/>
</svg>
