<svg width="760" height="760" viewBox="0 0 760 760" fill="none" xmlns="http://www.w3.org/2000/svg">
<circle cx="378" cy="380" r="358" fill="#D06400"/>
<circle cx="378" cy="380" r="344" fill="#D06400" stroke="black" stroke-width="12" stroke-dasharray="30 20"/>
<circle cx="380.021" cy="389.042" r="155.883" fill="black"/>
<path d="M516.604 393.496C504.876 420.975 498.387 445.712 495.503 467.501C491.921 501.035 495.676 539.278 516.604 573.133L369.629 537.503L385.959 442.488L464.643 389.042L516.604 393.496Z" fill="black"/>
<path d="M244.922 392.011C256.651 419.491 263.14 444.228 266.023 466.016C269.605 499.551 265.851 537.793 244.922 571.648L391.898 536.018L375.567 441.003L296.883 387.558L244.922 392.011Z" fill="black"/>
<path d="M547.081 185.062C547.752 181.823 544.426 179.217 541.441 180.641L408.705 244.002C406.027 245.281 405.625 248.929 407.961 250.76L510.884 331.429C513.22 333.26 516.666 331.998 517.268 329.092L547.081 185.062Z" fill="black"/>
<path fill-rule="evenodd" clip-rule="evenodd" d="M250.872 387.558C262.14 403.711 280.86 414.28 302.049 414.28C323.238 414.28 341.959 403.711 353.226 387.558H250.872Z" fill="#CDC61D"/>
<path fill-rule="evenodd" clip-rule="evenodd" d="M250.861 387.558C262.128 371.404 280.849 360.835 302.038 360.835C323.227 360.835 341.947 371.404 353.215 387.558H250.861Z" fill="#CDC61D"/>
<path fill-rule="evenodd" clip-rule="evenodd" d="M411.21 387.558C422.478 403.711 441.198 414.28 462.387 414.28C483.576 414.28 502.296 403.711 513.564 387.558H411.21Z" fill="#CDC61D"/>
<path fill-rule="evenodd" clip-rule="evenodd" d="M411.198 387.558C422.465 371.404 441.186 360.835 462.375 360.835C483.564 360.835 502.284 371.404 513.552 387.558H411.198Z" fill="#CDC61D"/>
<path fill-rule="evenodd" clip-rule="evenodd" d="M300.566 361.045C292.058 366.979 286.492 376.839 286.492 387.999C286.492 399.159 292.058 409.019 300.566 414.953V361.045Z" fill="black"/>
<path fill-rule="evenodd" clip-rule="evenodd" d="M300.564 360.835C309.072 366.769 314.639 376.629 314.639 387.789C314.639 398.949 309.072 408.809 300.564 414.743V360.835Z" fill="black"/>
<path fill-rule="evenodd" clip-rule="evenodd" d="M463.873 361.045C455.365 366.979 449.798 376.839 449.798 387.999C449.798 399.159 455.365 409.019 463.873 414.953V361.045Z" fill="black"/>
<path fill-rule="evenodd" clip-rule="evenodd" d="M463.871 360.835C472.379 366.769 477.945 376.629 477.945 387.789C477.945 398.949 472.379 408.809 463.871 414.743V360.835Z" fill="black"/>
<path d="M207.919 191.268C207.248 188.029 210.574 185.422 213.559 186.847L346.295 250.208C348.973 251.486 349.375 255.135 347.039 256.966L244.116 337.635C241.78 339.466 238.334 338.204 237.732 335.297L207.919 191.268Z" fill="black"/>
<path d="M243.5 573C263.9 588.6 419.5 629.5 516.5 573L509.5 566.5L484.5 554.5L429.5 540.5L406.5 535H372.5L324.5 545.5L289.5 552L258 561L245.5 571L243.5 573Z" fill="black"/>
<path d="M405.537 451.843C413.033 451.127 422.596 450.794 433.494 451.155C464.126 451.88 490.467 457.494 512.143 465.142C527.258 470.344 542.132 477.272 555.69 486.382C565.557 492.86 572.886 499.187 577.541 504.322C570.827 497.565 563.476 491.614 555.69 486.382C544.418 478.982 529.835 471.384 512.143 465.142C484.539 455.643 456.135 451.903 433.494 451.155C424.539 450.943 415.216 451.148 405.537 451.843Z" fill="white"/>
<path d="M405.537 451.843C442.026 448.355 527.512 453.967 577.541 504.322C559.15 484.033 499.002 445.132 405.537 451.843Z" stroke="white" stroke-width="6"/>
<path d="M405.537 466.492C413.034 467.194 422.49 468.66 433.128 471.058C463.08 477.513 487.902 487.967 507.759 499.544C521.63 507.487 534.942 517.081 546.551 528.572C555.028 536.785 561.041 544.374 564.65 550.291C559.323 542.395 553.218 535.171 546.551 528.572C536.867 519.189 523.966 508.992 507.759 499.544C482.426 485.037 455.226 476.038 433.128 471.058C424.371 469.17 415.175 467.624 405.537 466.492Z" fill="white"/>
<path d="M405.537 466.492C442.033 469.907 524.951 491.448 564.65 550.291C550.39 526.913 498.603 477.425 405.537 466.492Z" stroke="white" stroke-width="6"/>
<path d="M361.987 451.843C354.492 451.127 344.929 450.794 334.03 451.155C303.398 451.88 277.057 457.494 255.381 465.142C240.266 470.344 225.392 477.272 211.834 486.382C201.967 492.86 194.638 499.187 189.984 504.322C196.697 497.565 204.048 491.614 211.834 486.382C223.106 478.982 237.69 471.384 255.381 465.142C282.985 455.643 311.389 451.903 334.03 451.155C342.985 450.943 352.308 451.148 361.987 451.843Z" fill="white"/>
<path d="M361.987 451.843C325.498 448.355 240.012 453.967 189.984 504.322C208.374 484.033 268.522 445.132 361.987 451.843Z" stroke="white" stroke-width="6"/>
<path d="M361.987 466.492C354.49 467.194 345.034 468.66 334.397 471.058C304.444 477.513 279.623 487.967 259.765 499.544C245.894 507.487 232.582 517.081 220.973 528.572C212.496 536.785 206.483 544.374 202.874 550.291C208.201 542.395 214.306 535.171 220.973 528.572C230.658 519.189 243.558 508.992 259.765 499.544C285.099 485.037 312.298 476.038 334.397 471.058C343.154 469.17 352.349 467.624 361.987 466.492Z" fill="white"/>
<path d="M361.987 466.492C325.491 469.907 242.573 491.448 202.874 550.291C217.134 526.913 268.921 477.425 361.987 466.492Z" stroke="white" stroke-width="6"/>
<ellipse cx="406.053" cy="451.789" rx="4" ry="3" transform="rotate(-7.41102 406.053 451.789)" fill="white"/>
<ellipse cx="4" cy="3" rx="4" ry="3" transform="matrix(-0.991646 -0.128986 -0.128986 0.991646 366 449.33)" fill="white"/>
<ellipse cx="577.883" cy="504.625" rx="4" ry="3" transform="rotate(46.4324 577.883 504.625)" fill="white"/>
<ellipse cx="4" cy="3" rx="4" ry="3" transform="matrix(-0.68921 0.724561 0.724561 0.68921 190.3 499.66)" fill="white"/>
<ellipse cx="405.382" cy="466.433" rx="4" ry="3" transform="rotate(8.08242 405.382 466.433)" fill="white"/>
<ellipse cx="564.446" cy="550" rx="4" ry="3" transform="rotate(53.7537 564.446 550)" fill="white"/>
<ellipse cx="4" cy="3" rx="4" ry="3" transform="matrix(-0.990067 0.140597 0.140597 0.990067 365.921 462.9)" fill="white"/>
<ellipse cx="4" cy="3" rx="4" ry="3" transform="matrix(-0.591257 0.806483 0.806483 0.591257 203 545)" fill="white"/>
</svg>
